<?xml version="1.0" standalone="no"?>
<!DOCTYPE svg PUBLIC "-//W3C//DTD SVG 20010904//EN"
 "http://www.w3.org/TR/2001/REC-SVG-20010904/DTD/svg10.dtd">
<svg version="1.0" xmlns="http://www.w3.org/2000/svg"
 width="50.000000pt" height="50.000000pt" viewBox="0 0 50.000000 50.000000"
 preserveAspectRatio="xMidYMid meet">

<g transform="translate(0.000000,50.000000) scale(0.100000,-0.100000)"
fill="#000000" stroke="none">
<path d="M420 451 c0 -46 -1 -49 -31 -55 -34 -6 -37 -31 -6 -50 31 -19 52 4
55 63 3 52 3 52 33 46 24 -6 29 -3 29 13 0 14 -9 21 -31 26 -49 9 -49 9 -49
-43z"/>
<path d="M205 321 c-36 -15 -47 -39 -55 -112 -10 -92 -33 -119 -102 -119 -27
0 -48 -5 -48 -11 0 -12 49 -33 100 -44 19 -4 38 -12 41 -17 3 -5 17 -4 32 3
21 10 33 10 53 0 31 -14 46 -5 22 13 -16 12 -15 14 8 27 34 18 59 54 75 109 7
25 20 54 29 65 17 20 26 76 12 74 -4 0 -16 -4 -27 -9 -13 -5 -26 -3 -36 7 -21
18 -78 25 -104 14z m88 -31 c14 -11 32 -17 41 -14 13 5 15 2 10 -12 -4 -11
-11 -23 -15 -29 -4 -5 -10 -26 -14 -46 -19 -101 -119 -161 -223 -133 -21 6
-21 7 10 23 42 20 68 72 68 134 0 82 64 123 123 77z"/>
<path d="M260 265 c0 -8 7 -15 15 -15 8 0 15 7 15 15 0 8 -7 15 -15 15 -8 0
-15 -7 -15 -15z"/>
</g>
</svg>
