<svg xmlns="http://www.w3.org/2000/svg" width="56" height="56" viewBox="0 0 56 56"><title>Bubbles</title><g fill="none" fill-rule="evenodd"><path fill="currentColor" fill-rule="nonzero" d="M22.5 16a1.5 1.5 0 0 1 0 3c-4.326 0-7.5 3.174-7.5 7.5a1.5 1.5 0 0 1-3 0C12 20.517 16.517 16 22.5 16zm23 23a1.5 1.5 0 0 1 0 3c-1.749 0-3.5 1.751-3.5 3.5a1.5 1.5 0 0 1-3 0c0-3.406 3.094-6.5 6.5-6.5zm-12-31a2.5 2.5 0 1 0 0-5 2.5 2.5 0 0 0 0 5zm0 3a5.5 5.5 0 1 1 0-11 5.5 5.5 0 0 1 0 11zm15 12a4.5 4.5 0 1 0 0-9 4.5 4.5 0 0 0 0 9zm0 3a7.5 7.5 0 1 1 0-15 7.5 7.5 0 0 1 0 15z"></path><circle cx="47.5" cy="17.5" r="1.5" fill="currentColor"></circle><path fill="currentColor" fill-rule="nonzero" d="M7.5 52a3.5 3.5 0 1 0 0-7 3.5 3.5 0 0 0 0 7zm0 3a6.5 6.5 0 1 1 0-13 6.5 6.5 0 0 1 0 13zM45 53a8 8 0 1 0 0-16 8 8 0 0 0 0 16zm0 3c-6.075 0-11-4.925-11-11s4.925-11 11-11 11 4.925 11 11-4.925 11-11 11zM22.5 40C29.956 40 36 33.956 36 26.5S29.956 13 22.5 13 9 19.044 9 26.5 15.044 40 22.5 40zm0 3C13.387 43 6 35.613 6 26.5S13.387 10 22.5 10 39 17.387 39 26.5 31.613 43 22.5 43z"></path><path d="M0 0h56v56H0z"></path></g></svg>