<?xml version="1.0" standalone="no"?>
<!DOCTYPE svg PUBLIC "-//W3C//DTD SVG 20010904//EN"
 "http://www.w3.org/TR/2001/REC-SVG-20010904/DTD/svg10.dtd">
<svg version="1.0" xmlns="http://www.w3.org/2000/svg"
 width="50.000000pt" height="50.000000pt" viewBox="0 0 50.000000 50.000000"
 preserveAspectRatio="xMidYMid meet">

<g transform="translate(0.000000,50.000000) scale(0.100000,-0.100000)"
fill="#000000" stroke="none">
<path d="M15 316 c-12 -19 -15 -48 -13 -142 3 -110 5 -119 23 -123 11 -2 30
-14 42 -27 28 -31 58 -30 87 1 35 37 157 37 192 0 29 -31 59 -32 87 -2 12 13
32 29 45 36 19 10 22 20 22 71 0 69 -41 184 -71 200 -10 6 -103 10 -208 10
-190 0 -191 0 -206 -24z m405 -6 c11 -7 8 -10 -15 -10 -39 0 -55 -16 -55 -55
0 -44 16 -55 77 -55 l53 0 0 -54 c0 -65 -13 -77 -45 -42 -30 33 -59 33 -89 1
-21 -22 -31 -25 -96 -25 -65 0 -75 3 -96 25 -13 14 -32 25 -44 25 -12 0 -31
-11 -44 -25 -13 -14 -28 -25 -35 -25 -16 0 -15 222 1 238 15 15 365 17 388 2z
m37 -65 l11 -35 -49 0 -49 0 0 35 c0 34 1 35 38 35 35 0 40 -3 49 -35z m-317
-160 c26 -32 -13 -81 -47 -59 -10 6 -19 19 -21 28 -8 38 43 61 68 31z m280 0
c15 -18 10 -45 -12 -59 -35 -22 -74 27 -48 59 16 19 44 19 60 0z"/>
<path d="M52 288 c-16 -16 -16 -70 0 -86 16 -16 90 -16 106 0 16 16 16 70 0
86 -7 7 -30 12 -53 12 -23 0 -46 -5 -53 -12z m98 -43 c0 -35 0 -35 -45 -35
-45 0 -45 0 -45 35 0 35 0 35 45 35 45 0 45 0 45 -35z"/>
<path d="M202 288 c-16 -16 -16 -70 0 -86 16 -16 100 -16 116 0 7 7 12 26 12
43 0 17 -5 36 -12 43 -16 16 -100 16 -116 0z m108 -43 l0 -35 -50 0 -50 0 0
35 0 35 50 0 50 0 0 -35z"/>
</g>
</svg>
