<?xml version="1.0" standalone="no"?>
<!DOCTYPE svg PUBLIC "-//W3C//DTD SVG 20010904//EN"
 "http://www.w3.org/TR/2001/REC-SVG-20010904/DTD/svg10.dtd">
<svg version="1.0" xmlns="http://www.w3.org/2000/svg"
 width="50.000000pt" height="50.000000pt" viewBox="0 0 50.000000 50.000000"
 preserveAspectRatio="xMidYMid meet">

<g transform="translate(0.000000,50.000000) scale(0.100000,-0.100000)"
fill="#000000" stroke="none">
<path d="M340 467 c0 -7 -9 -20 -20 -30 -21 -18 -27 -47 -10 -47 6 0 10 6 10
13 0 7 9 20 20 30 21 18 27 47 10 47 -5 0 -10 -6 -10 -13z"/>
<path d="M368 425 c-18 -24 -23 -45 -12 -45 10 0 43 44 44 58 0 19 -13 14 -32
-13z"/>
<path d="M242 243 l3 -118 90 -3 90 -3 32 42 c32 41 51 113 39 144 -3 8 -17
15 -31 15 -18 0 -25 5 -25 20 0 19 -7 20 -100 20 l-101 0 3 -117z m238 35 c0
-32 -19 -96 -30 -103 -6 -4 -10 20 -10 59 0 59 2 66 20 66 14 0 20 -7 20 -22z"/>
<path d="M160 320 c-8 -5 -31 -10 -50 -10 -26 0 -45 -10 -74 -36 -35 -33 -38
-40 -33 -76 9 -67 27 -78 129 -78 l88 0 0 65 0 65 -85 0 c-84 0 -85 0 -68 19
12 12 30 18 53 16 23 -1 39 4 47 14 10 13 15 14 32 3 17 -10 21 -10 21 2 0 23
-35 32 -60 16z"/>
<path d="M0 92 c0 -4 7 -18 16 -30 15 -22 19 -22 234 -22 215 0 219 0 234 22
9 12 16 26 16 30 0 5 -112 8 -250 8 -137 0 -250 -3 -250 -8z"/>
</g>
</svg>
