<?xml version="1.0" standalone="no"?>
<!DOCTYPE svg PUBLIC "-//W3C//DTD SVG 20010904//EN"
 "http://www.w3.org/TR/2001/REC-SVG-20010904/DTD/svg10.dtd">
<svg version="1.0" xmlns="http://www.w3.org/2000/svg"
 width="512.000000pt" height="512.000000pt" viewBox="0 0 512.000000 512.000000"
 preserveAspectRatio="xMidYMid meet">

<g transform="translate(0.000000,512.000000) scale(0.100000,-0.100000)"
fill="#000000" stroke="none">
<path d="M115 4136 c-62 -28 -115 -110 -115 -179 0 -47 43 -128 83 -154 18
-13 57 -27 86 -33 74 -14 4708 -14 4782 0 29 6 68 20 86 33 40 27 83 108 83
156 -1 71 -59 156 -123 180 -20 8 -759 11 -2440 11 -1993 -1 -2417 -3 -2442
-14z"/>
<path d="M190 2560 l0 -190 475 0 475 0 0 190 0 190 -475 0 -475 0 0 -190z"/>
<path d="M2090 2560 l0 -190 470 0 470 0 0 190 0 190 -470 0 -470 0 0 -190z"/>
<path d="M3980 2560 l0 -190 475 0 475 0 0 190 0 190 -475 0 -475 0 0 -190z"/>
<path d="M161 1349 c-24 -5 -59 -19 -78 -31 -40 -28 -83 -109 -83 -157 1 -71
59 -156 123 -180 40 -15 4834 -15 4874 0 64 24 122 109 123 180 0 48 -43 129
-83 156 -18 13 -57 27 -86 33 -67 13 -4725 12 -4790 -1z"/>
</g>
</svg>
