<?xml version="1.0" standalone="no"?>
<!DOCTYPE svg PUBLIC "-//W3C//DTD SVG 20010904//EN"
 "http://www.w3.org/TR/2001/REC-SVG-20010904/DTD/svg10.dtd">
<svg version="1.0" xmlns="http://www.w3.org/2000/svg"
 width="512.000000pt" height="512.000000pt" viewBox="0 0 512.000000 512.000000"
 preserveAspectRatio="xMidYMid meet">

<g transform="translate(0.000000,512.000000) scale(0.100000,-0.100000)"
fill="#000000" stroke="none">
<path d="M1600 4947 c-49 -16 -133 -102 -148 -153 -7 -23 -12 -67 -12 -98 l0
-56 -135 0 c-131 0 -137 -1 -160 -25 -14 -13 -25 -30 -25 -37 0 -7 -16 -202
-35 -433 -19 -231 -35 -430 -35 -442 l0 -23 -365 0 -365 0 0 80 0 80 264 0
c263 0 265 0 292 23 37 33 37 81 0 114 l-27 23 -320 0 -320 0 -24 -25 c-25
-24 -25 -26 -25 -215 0 -189 0 -191 25 -215 20 -21 34 -25 80 -25 l55 0 0
-1015 0 -1016 25 -24 c32 -33 78 -33 110 0 l25 24 0 1016 0 1015 1200 0 1200
0 0 -295 0 -296 25 -24 c15 -16 36 -25 55 -25 19 0 40 9 55 25 l25 24 0 296 0
295 55 0 c46 0 60 4 80 25 25 24 25 26 25 215 0 189 0 191 -25 215 l-24 25
-430 0 -431 0 -4 23 c-3 12 -14 143 -26 291 -12 148 -26 278 -31 288 -17 32
-46 38 -178 38 l-131 0 0 56 c0 81 -18 129 -67 184 -65 72 -158 97 -253 67z
m135 -172 c21 -20 25 -34 25 -80 l0 -55 -80 0 -80 0 0 55 c0 67 29 105 80 105
19 0 40 -9 55 -25z m-295 -430 c0 -131 1 -137 25 -160 32 -33 78 -33 110 0 24
23 25 29 25 160 l0 135 80 0 80 0 0 -135 c0 -131 1 -137 25 -160 32 -33 78
-33 110 0 24 23 25 29 25 160 l0 135 85 0 c81 0 85 -1 85 -22 0 -13 14 -183
30 -378 16 -195 30 -365 30 -377 l0 -23 -470 0 -470 0 0 23 c0 12 14 182 30
377 16 195 30 365 30 378 0 21 4 22 85 22 l85 0 0 -135z m1600 -585 l0 -80
-365 0 -365 0 0 34 c0 18 -3 54 -6 80 l-7 46 372 0 371 0 0 -80z"/>
<path d="M4591 3503 c-16 -13 -38 -76 -84 -238 l-63 -220 -563 -5 -563 -5 -19
-24 c-10 -13 -19 -33 -19 -45 0 -11 38 -172 85 -356 87 -346 96 -370 144 -370
13 0 16 -13 16 -80 l0 -80 -242 0 -243 0 0 295 0 296 -25 24 c-15 16 -36 25
-55 25 -19 0 -40 -9 -55 -25 l-25 -24 0 -1176 0 -1175 -440 0 -440 0 0 240 0
240 160 0 160 0 0 -135 c0 -131 1 -137 25 -160 32 -33 78 -33 110 0 25 24 25
26 25 215 0 189 0 191 -25 215 l-24 25 -751 0 -751 0 -24 -25 -25 -24 0 -296
0 -295 -200 0 -200 0 0 455 0 456 -25 24 c-32 33 -78 33 -110 0 l-25 -24 0
-511 0 -511 25 -24 24 -25 1311 0 1311 0 24 25 c24 23 25 29 25 160 l0 135
720 0 720 0 0 -80 0 -80 -615 0 -616 0 -24 -25 c-33 -32 -33 -78 0 -110 l24
-25 671 0 671 0 24 25 c25 24 25 26 25 215 0 189 0 191 -25 215 -24 24 -28 25
-180 25 -85 0 -155 3 -155 8 0 4 75 220 167 479 l168 473 148 0 c144 0 149 1
172 25 25 24 25 26 25 215 0 256 15 240 -229 240 l-180 0 6 50 c9 75 -12 135
-66 191 -25 25 -52 48 -59 50 -12 4 92 389 249 922 l20 67 105 0 c98 0 107 2
129 25 16 15 25 36 25 55 0 19 -9 40 -25 55 -23 24 -28 25 -173 25 -128 0
-153 -3 -171 -17z m-911 -703 l0 -80 -89 0 -89 0 -20 80 -20 80 109 0 109 0 0
-80z m320 0 l0 -80 -80 0 -80 0 0 80 0 80 80 0 80 0 0 -80z m375 3 l-22 -78
-97 -3 -96 -3 0 81 0 80 119 0 119 0 -23 -77z m-695 -323 l0 -80 -49 0 -49 0
-20 80 -20 80 69 0 69 0 0 -80z m320 0 l0 -80 -80 0 -80 0 0 80 0 80 80 0 80
0 0 -80z m300 69 c0 -7 -9 -43 -20 -80 l-21 -69 -49 0 -50 0 0 80 0 80 70 0
c46 0 70 -4 70 -11z m-485 -334 c50 -49 15 -135 -55 -135 -41 0 -80 39 -80 80
0 41 39 80 80 80 19 0 40 -9 55 -25z m270 -55 l0 -80 -45 0 -45 0 0 80 0 80
45 0 45 0 0 -80z m290 55 c50 -49 15 -135 -55 -135 -41 0 -80 39 -80 80 0 41
39 80 80 80 19 0 40 -9 55 -25z m425 -375 l0 -80 -775 0 -776 0 -24 -25 c-33
-32 -33 -78 0 -110 l24 -25 596 0 c327 0 595 -3 595 -7 0 -5 -75 -221 -167
-480 l-168 -473 -532 0 -533 0 0 80 0 80 455 0 456 0 24 25 25 24 0 271 0 271
-25 24 -24 25 -456 0 -455 0 0 240 0 240 880 0 880 0 0 -80z m-1440 -720 l0
-160 -160 0 -160 0 0 160 0 160 160 0 160 0 0 -160z m480 0 l0 -160 -160 0
-160 0 0 160 0 160 160 0 160 0 0 -160z m-2480 -560 l0 -240 -160 0 -160 0 0
240 0 240 160 0 160 0 0 -240z m480 0 l0 -240 -160 0 -160 0 0 240 0 240 160
0 160 0 0 -240z"/>
<path d="M905 3255 c-16 -15 -25 -36 -25 -55 0 -19 9 -40 25 -55 l24 -25 751
0 751 0 24 25 c33 32 33 78 0 110 l-24 25 -751 0 -751 0 -24 -25z"/>
<path d="M665 2935 l-25 -24 0 -351 0 -351 25 -24 24 -25 671 0 671 0 24 25
25 24 0 296 0 295 240 0 240 0 0 -240 0 -240 -135 0 c-131 0 -137 -1 -160 -25
-33 -32 -33 -78 0 -110 24 -25 26 -25 215 -25 189 0 191 0 215 25 l25 24 0
351 0 351 -25 24 -24 25 -991 0 -991 0 -24 -25z m615 -375 l0 -240 -240 0
-240 0 0 240 0 240 240 0 240 0 0 -240z m640 0 l0 -240 -240 0 -240 0 0 240 0
240 240 0 240 0 0 -240z"/>
<path d="M665 1975 c-25 -24 -25 -26 -25 -215 0 -189 0 -191 25 -215 l24 -25
991 0 991 0 24 25 c25 24 25 26 25 215 0 189 0 191 -25 215 l-24 25 -991 0
-991 0 -24 -25z m295 -215 l0 -80 -80 0 -80 0 0 80 0 80 80 0 80 0 0 -80z
m320 0 l0 -80 -80 0 -80 0 0 80 0 80 80 0 80 0 0 -80z m320 0 l0 -80 -80 0
-80 0 0 80 0 80 80 0 80 0 0 -80z m320 0 l0 -80 -80 0 -80 0 0 80 0 80 80 0
80 0 0 -80z m320 0 l0 -80 -80 0 -80 0 0 80 0 80 80 0 80 0 0 -80z m320 0 l0
-80 -80 0 -80 0 0 80 0 80 80 0 80 0 0 -80z"/>
<path d="M1145 1255 c-16 -15 -25 -36 -25 -55 0 -19 9 -40 25 -55 l24 -25 511
0 511 0 24 25 c16 15 25 36 25 55 0 19 -9 40 -25 55 l-24 25 -511 0 -511 0
-24 -25z"/>
</g>
</svg>
