<?xml version="1.0" standalone="no"?>
<!DOCTYPE svg PUBLIC "-//W3C//DTD SVG 20010904//EN"
 "http://www.w3.org/TR/2001/REC-SVG-20010904/DTD/svg10.dtd">
<svg version="1.0" xmlns="http://www.w3.org/2000/svg"
 width="512.000000pt" height="512.000000pt" viewBox="0 0 512.000000 512.000000"
 preserveAspectRatio="xMidYMid meet">

<g transform="translate(0.000000,512.000000) scale(0.100000,-0.100000)"
fill="#000000" stroke="none">
<path d="M3431 5098 c-62 -23 -127 -83 -156 -143 -12 -26 -21 -68 -23 -118 -4
-72 -2 -83 28 -143 61 -124 146 -164 352 -164 l128 0 0 -239 0 -238 -60 -6
c-78 -9 -126 -29 -174 -75 -71 -68 -76 -89 -76 -333 l0 -217 28 -53 c31 -60
96 -111 163 -129 25 -7 196 -10 487 -8 l447 3 49 25 c55 28 90 66 120 130 19
41 21 63 21 250 0 187 -2 209 -21 250 -42 92 -121 145 -233 156 l-61 7 0 238
0 239 260 0 260 0 0 -1725 0 -1725 -625 -2 -624 -3 -22 -22 c-30 -30 -30 -80
0 -105 22 -17 56 -18 647 -18 l624 0 0 -390 0 -390 -840 0 -840 0 0 390 0 390
95 0 c82 0 98 3 115 20 27 27 26 81 -1 106 -19 17 -38 19 -169 19 -131 0 -150
-2 -169 -19 -21 -19 -21 -26 -21 -370 0 -298 -2 -348 -14 -336 -13 15 -346
528 -346 535 0 2 29 17 65 34 117 54 218 170 256 292 18 58 19 111 19 1274 0
1182 -1 1215 -20 1277 -39 128 -127 231 -245 289 -79 38 -142 49 -286 49
l-118 0 -5 33 c-21 125 -29 155 -50 188 -14 21 -44 46 -68 58 -44 21 -52 21
-684 21 -602 0 -641 -2 -680 -19 -72 -33 -104 -92 -119 -223 l-6 -58 -128 0
c-82 0 -148 -5 -186 -15 -185 -49 -326 -204 -355 -391 -7 -42 -10 -179 -8
-338 3 -268 3 -268 27 -287 28 -22 69 -25 97 -5 18 14 19 32 24 323 5 307 5
308 31 364 36 76 90 133 157 166 l57 28 1090 0 1090 0 65 -36 c43 -23 78 -52
102 -85 73 -95 69 -5 66 -1355 l-3 -1214 -27 -51 c-35 -67 -115 -138 -181
-161 -45 -16 -86 -18 -307 -18 l-254 0 -23 134 c-27 167 -51 212 -132 254
l-55 27 -345 0 c-388 0 -395 -2 -458 -73 -37 -42 -47 -72 -68 -197 -8 -52 -18
-107 -21 -123 l-6 -27 -222 0 c-231 0 -315 9 -376 40 -56 28 -119 96 -148 158
l-27 57 -3 792 -3 792 -26 21 c-35 27 -59 25 -94 -9 l-29 -29 0 -759 c0 -825
1 -835 57 -949 41 -85 125 -167 217 -210 49 -23 73 -40 69 -48 -4 -6 -119
-184 -255 -395 -149 -230 -248 -393 -248 -408 0 -13 11 -35 25 -48 l24 -25
314 0 c251 0 317 3 332 14 11 8 36 58 56 112 l36 99 855 3 856 2 33 -92 c18
-51 43 -103 56 -116 l22 -22 1231 0 1231 0 24 25 25 24 0 2511 0 2511 -25 24
-24 25 -793 -1 c-778 0 -794 0 -847 -21z m1539 -273 l0 -145 -725 0 c-794 0
-766 -2 -818 59 -22 26 -27 43 -27 85 0 65 30 111 90 138 8 4 345 7 748 7
l732 1 0 -145z m-670 -535 l0 -240 -195 0 -195 0 0 240 0 240 195 0 195 0 0
-240z m-2032 -52 c6 -7 13 -31 17 -53 3 -22 8 -50 11 -62 l4 -23 -655 0 -655
0 6 58 c12 102 -59 92 643 92 483 0 621 -3 629 -12z m2314 -376 l33 -32 0
-188 c0 -212 -6 -233 -74 -252 -24 -7 -181 -10 -459 -8 l-424 3 -29 33 -29 32
0 188 c0 157 3 191 16 211 35 50 47 51 506 48 l428 -2 32 -33z m-2595 -2594
c14 -16 26 -52 37 -119 9 -53 16 -104 16 -113 0 -14 -37 -16 -393 -16 -217 0
-396 2 -399 5 -4 5 4 61 27 193 3 18 15 42 26 53 18 18 35 19 342 19 323 0
324 0 344 -22z m-1127 -401 c0 -1 -58 -162 -129 -357 l-129 -355 -192 -3
c-122 -1 -191 1 -188 7 1 6 104 168 228 360 l225 350 93 1 c50 0 92 -1 92 -3z
m1434 -79 c16 -46 31 -89 34 -95 3 -10 -137 -13 -682 -13 -425 0 -686 4 -686
9 0 6 14 48 31 95 l31 86 622 0 621 0 29 -82z m525 -243 c113 -176 217 -337
230 -357 l23 -38 -194 0 -193 0 -128 353 c-70 193 -127 356 -127 360 0 4 41 6
91 5 l91 -3 207 -320z m-405 -86 c14 -38 26 -72 26 -75 0 -2 -358 -4 -795 -4
-447 0 -795 4 -795 9 0 8 17 57 39 114 l11 27 744 0 744 0 26 -71z"/>
<path d="M520 3874 c-72 -31 -112 -90 -112 -164 0 -56 19 -97 66 -138 98 -86
266 -24 283 106 12 89 -24 158 -102 193 -48 22 -88 23 -135 3z m85 -164 c0
-16 -6 -26 -18 -28 -19 -4 -32 20 -23 44 9 25 41 13 41 -16z"/>
<path d="M1285 3871 c-74 -34 -115 -95 -115 -171 0 -76 41 -137 115 -171 36
-17 70 -19 350 -19 183 0 325 4 347 10 166 47 182 279 23 351 -36 17 -71 19
-360 19 -290 0 -324 -2 -360 -19z m669 -147 c20 -19 20 -29 0 -48 -13 -14 -56
-16 -313 -16 -306 0 -321 2 -321 40 0 38 15 40 321 40 257 0 300 -2 313 -16z"/>
<path d="M2644 3879 c-42 -12 -100 -78 -114 -128 -21 -79 19 -164 93 -200 114
-55 244 18 255 143 11 131 -105 223 -234 185z m84 -167 c4 -28 -24 -40 -45
-19 -14 13 -14 19 -3 32 18 22 44 15 48 -13z"/>
<path d="M568 3456 c-60 -21 -115 -72 -145 -134 l-28 -57 0 -370 0 -370 27
-51 c15 -28 44 -66 64 -84 76 -66 68 -65 504 -65 l395 0 51 27 c59 31 98 73
128 138 20 43 21 61 21 410 0 353 -1 367 -22 412 -11 25 -40 64 -62 86 -73 70
-85 72 -515 72 -288 -1 -390 -4 -418 -14z m827 -169 c24 -24 35 -46 40 -78 3
-24 5 -181 3 -349 -3 -283 -4 -307 -23 -334 -36 -54 -53 -56 -425 -56 -372 0
-392 3 -427 56 -16 25 -18 58 -21 349 -4 350 0 378 49 419 l31 26 370 0 370 0
33 -33z"/>
<path d="M1852 3444 c-29 -14 -68 -44 -87 -67 -61 -71 -65 -100 -65 -477 0
-400 3 -415 84 -497 83 -83 95 -85 538 -81 l373 3 53 29 c30 17 67 47 83 67
57 72 59 88 59 483 0 359 0 361 -24 411 -29 60 -76 107 -136 134 -43 20 -64
21 -436 21 l-390 0 -52 -26z m850 -153 l33 -29 3 -349 c3 -311 1 -351 -14
-380 -32 -61 -45 -63 -429 -63 -382 0 -387 1 -425 63 -19 30 -20 52 -20 358 0
217 4 337 11 358 7 18 26 41 43 52 29 18 55 19 398 19 l368 0 32 -29z"/>
<path d="M1138 2106 c-41 -31 -37 -113 7 -130 9 -3 234 -6 499 -6 474 0 484 0
510 21 36 28 36 80 0 108 -26 21 -36 21 -513 21 -383 -1 -490 -3 -503 -14z"/>
<path d="M594 1979 c-67 -25 -123 -75 -159 -140 -27 -49 -30 -63 -30 -144 0
-81 3 -95 30 -144 99 -178 337 -215 479 -73 65 64 90 124 90 217 0 99 -28 159
-104 228 -84 76 -200 97 -306 56z m194 -156 c49 -37 67 -71 67 -128 0 -121
-124 -193 -229 -132 -140 80 -73 297 87 284 27 -2 60 -13 75 -24z"/>
<path d="M2483 1982 c-95 -34 -169 -112 -194 -207 -18 -65 -6 -164 27 -225
119 -218 425 -211 541 13 23 44 27 65 27 132 0 93 -25 153 -90 217 -79 80
-205 108 -311 70z m185 -159 c49 -37 67 -71 67 -128 0 -121 -124 -193 -229
-132 -139 80 -72 297 87 284 27 -2 60 -13 75 -24z"/>
<path d="M1134 1877 c-35 -31 -38 -82 -5 -109 22 -17 52 -18 515 -18 l493 0
21 23 c27 29 28 67 3 98 l-19 24 -490 3 -490 3 -28 -24z"/>
</g>
</svg>
